Coordinates
version=1
nRows=11
nColumns=63
inDegrees=yes

Units are S.I. units (second, meters, Newtons, ...)
If the header above contains a line with 'inDegrees', this indicates whether rotational values are in degrees (yes) or radians (no).

endheader
time	pelvis_tilt	pelvis_list	pelvis_rotation	pelvis_tx	pelvis_ty	pelvis_tz	hip_flexion_r	hip_adduction_r	hip_rotation_r	knee_angle_r	knee_angle_r_beta	ankle_angle_r	subtalar_angle_r	mtp_angle_r	hip_flexion_l	hip_adduction_l	hip_rotation_l	knee_angle_l	knee_angle_l_beta	ankle_angle_l	subtalar_angle_l	mtp_angle_l	L5_S1_Flex_Ext	L5_S1_Lat_Bending	L5_S1_axial_rotation	L4_L5_Flex_Ext	L4_L5_Lat_Bending	L4_L5_axial_rotation	L3_L4_Flex_Ext	L3_L4_Lat_Bending	L3_L4_axial_rotation	L2_L3_Flex_Ext	L2_L3_Lat_Bending	L2_L3_axial_rotation	L1_L2_Flex_Ext	L1_L2_Lat_Bending	L1_L2_axial_rotation	L1_T12_Flex_Ext	L1_T12_Lat_Bending	L1_T12_axial_rotation	Abs_r3	Abs_r2	Abs_r1	Abs_t1	Abs_t2	neck_flexion	neck_bending	neck_rotation	arm_flex_r	arm_add_r	arm_rot_r	elbow_flex_r	pro_sup_r	wrist_flex_r	wrist_dev_r	arm_flex_l	arm_add_l	arm_rot_l	elbow_flex_l	pro_sup_l	wrist_flex_l	wrist_dev_l
1.659574	3.415917	2.446063	89.602421	0.147693	0.989919	0.503414	-0.339257	4.328719	-17.133995	14.535985	0.253701	32.101928	-7.171685	0.000000	0.552925	-4.912167	13.715218	9.961320	0.173858	37.046170	8.377592	0.000000	-0.521444	1.047106	2.357269	-0.968373	1.392650	2.504598	-0.856680	2.545933	2.504598	-0.595958	2.545933	2.062610	-0.484213	2.135258	1.915281	-0.297953	1.621967	1.767952	-3.724621	11.845068	13.110423	0.000000	0.000000	-0.224398	-9.879278	6.925452	12.295916	-19.565459	113.672357	6.136486	4.947996	-7.045625	-2.842890	36.816395	4.540707	15.964943	143.543166	83.400489	-7.992802	18.427310
1.680851	3.401863	2.717828	89.774503	0.147322	0.990465	0.503800	-0.663566	4.324052	-17.152469	14.440214	0.252029	31.872228	-7.198432	0.000000	0.518576	-4.886055	13.433243	10.306221	0.179877	37.189655	9.076236	0.000000	-0.517446	1.046643	2.349414	-0.960949	1.392036	2.496253	-0.850112	2.544809	2.496253	-0.591389	2.544809	2.055737	-0.480500	2.134315	1.908899	-0.295669	1.621251	1.762061	-3.696066	11.839840	13.066737	0.000000	0.000000	-0.886084	-9.474347	6.931496	12.262194	-19.467500	115.860458	5.850052	4.948233	-6.765829	-2.508817	37.024741	4.649367	16.069638	142.903931	83.755128	-7.921113	18.008711
1.702128	3.423514	2.973843	89.954128	0.146954	0.990974	0.504200	-0.947870	4.354645	-17.228602	14.397842	0.251290	31.610413	-7.231648	0.000000	0.516452	-4.900559	13.150639	10.689669	0.186570	37.354566	9.755031	0.000000	-0.516435	1.047902	2.347012	-0.959072	1.393709	2.493701	-0.848451	2.547869	2.493701	-0.590234	2.547869	2.053636	-0.479562	2.136882	1.906948	-0.295091	1.623200	1.760259	-3.688845	11.854076	13.053379	0.000000	0.000000	-1.545919	-9.060699	6.744237	12.219612	-19.430987	116.883153	5.785127	4.933338	-6.402360	-2.167717	37.218263	4.756120	16.189820	142.236148	84.159008	-7.816480	17.396034
1.723404	3.479924	3.215801	90.087046	0.146648	0.991427	0.504554	-1.193936	4.418657	-17.259171	14.415098	0.251591	31.332989	-7.321451	0.000000	0.513459	-4.951833	12.852519	11.072188	0.193246	37.548321	10.378784	0.000000	-0.519051	1.051264	2.357029	-0.963930	1.398181	2.504344	-0.852749	2.556043	2.504344	-0.593224	2.556043	2.062401	-0.481991	2.143737	1.915086	-0.296586	1.628408	1.767772	-3.707532	11.892107	13.109091	0.000000	0.000000	-2.169992	-8.710489	6.341992	12.163014	-19.453387	116.820834	5.912903	4.870719	-5.980674	-1.886796	37.383368	4.855415	16.282650	141.632807	84.516246	-7.641029	16.813176
1.744681	3.565879	3.459576	90.159823	0.146453	0.991849	0.504791	-1.428336	4.509660	-17.243203	14.481117	0.252743	31.048057	-7.445152	0.000000	0.475208	-5.041157	12.483955	11.427098	0.199440	37.772701	11.009323	0.000000	-0.526423	1.056009	2.377118	-0.977620	1.404492	2.525687	-0.864860	2.567581	2.525687	-0.601649	2.567581	2.079978	-0.488836	2.153414	1.931408	-0.300798	1.635758	1.782838	-3.760187	11.945786	13.220815	0.000000	0.000000	-2.754792	-8.421150	5.768788	12.092312	-19.542828	115.656629	6.269017	4.854452	-5.573632	-1.682506	37.501156	4.916532	16.358504	141.111403	84.829744	-7.412666	16.289682
1.765957	3.674256	3.709345	90.223961	0.146298	0.992261	0.504886	-1.668455	4.622576	-17.242176	14.569466	0.254285	30.765802	-7.568041	0.000000	0.389229	-5.149635	12.278251	11.719688	0.204547	37.968960	11.407941	0.000000	-0.537337	1.062109	2.395762	-0.997889	1.412605	2.545497	-0.882791	2.582412	2.545497	-0.614123	2.582412	2.096291	-0.498971	2.165853	1.946556	-0.307035	1.645207	1.796821	-3.838146	12.014791	13.324508	0.000000	0.000000	-3.304883	-8.204089	5.030433	12.011299	-19.646395	113.650919	6.713988	4.823487	-5.218885	-1.565165	37.577007	4.916347	16.508667	140.664286	84.960631	-7.353205	15.864999
1.787234	3.797011	3.964038	90.279168	0.146159	0.992670	0.504830	-1.918623	4.741625	-17.282143	14.671652	0.256069	30.520486	-7.638205	0.000000	0.263750	-5.271033	12.110559	11.963221	0.208798	38.159616	11.722981	0.000000	-0.550872	1.070042	2.404580	-1.023024	1.423156	2.554866	-0.905027	2.601701	2.554866	-0.629591	2.601701	2.104008	-0.511540	2.182031	1.953721	-0.314768	1.657496	1.803435	-3.934823	12.104535	13.373553	0.000000	0.000000	-3.817215	-8.092532	4.216484	11.948256	-19.789433	110.948072	7.281318	4.828831	-4.929150	-1.540902	37.614805	4.839724	16.708094	140.284851	84.984619	-7.424410	15.631977
1.808511	3.945706	4.222208	90.268735	0.146061	0.993096	0.504615	-2.184910	4.876980	-17.298487	14.772315	0.257826	30.312855	-7.656593	0.000000	0.069529	-5.413992	11.951763	12.122733	0.211582	38.318021	11.910735	0.000000	-0.566649	1.082893	2.404843	-1.052324	1.440248	2.555146	-0.930948	2.632947	2.555146	-0.647623	2.632947	2.104238	-0.526190	2.208236	1.953935	-0.323783	1.677402	1.803632	-4.047518	12.249907	13.375016	0.000000	0.000000	-4.280146	-8.110946	3.455344	11.919196	-19.979995	107.574611	7.967229	4.973553	-4.768583	-1.586238	37.588433	4.691195	16.919270	139.967370	84.972090	-7.618354	15.549289
1.829787	4.106167	4.462196	90.146963	0.146019	0.993506	0.504304	-2.429544	5.006672	-17.239537	14.894941	0.259966	30.167263	-7.624274	0.000000	-0.176767	-5.558395	11.797236	12.200447	0.212938	38.422379	11.901897	0.000000	-0.581816	1.100067	2.405527	-1.080491	1.463089	2.555872	-0.955866	2.674702	2.555872	-0.664958	2.674702	2.104836	-0.540275	2.243256	1.954491	-0.332450	1.704003	1.804145	-4.155856	12.444176	13.378818	0.000000	0.000000	-4.682102	-8.272848	2.772241	11.902846	-20.236603	103.414746	8.791433	5.180978	-4.684014	-1.708918	37.503333	4.453592	17.127702	139.721432	84.962710	-7.922954	15.608239
1.851064	4.273746	4.664183	89.931457	0.146014	0.993883	0.503927	-2.637675	5.124140	-17.154069	15.024629	0.262229	30.088470	-7.488871	0.000000	-0.424259	-5.710442	11.459830	12.248593	0.213778	38.521750	11.954767	0.000000	-0.593820	1.122451	2.390024	-1.102783	1.492860	2.539400	-0.975587	2.729129	2.539400	-0.678677	2.729129	2.091271	-0.551421	2.288903	1.941894	-0.339309	1.738677	1.792518	-4.241596	12.697396	13.292595	0.000000	0.000000	-4.994163	-8.575988	2.347759	11.962190	-20.496849	99.426774	9.592099	5.529372	-4.744986	-1.808690	37.284251	4.067030	17.136848	139.655156	85.013046	-7.984986	15.847326
1.872340	4.438242	4.822460	89.589859	0.146146	0.994191	0.503518	-2.801555	5.229248	-16.962562	15.156809	0.264536	30.079256	-7.315120	0.000000	-0.686052	-5.856993	11.027382	12.238235	0.213597	38.595281	11.915547	0.000000	-0.601888	1.146876	2.372002	-1.117767	1.525345	2.520252	-0.988842	2.788513	2.520252	-0.687898	2.788513	2.075502	-0.558914	2.338709	1.927252	-0.343919	1.776510	1.779002	-4.299229	12.973687	13.192365	0.000000	0.000000	-5.204611	-8.977759	2.134197	12.075665	-20.767359	95.312889	10.439365	5.885780	-4.895664	-1.940279	36.908016	3.487268	16.996628	139.802196	85.126449	-7.938124	16.081627
